<svg width="1800" height="510" viewBox="0 0 1800 510" fill="none" xmlns="http://www.w3.org/2000/svg">
<g clip-path="url(#clip0_70_2)">
<g clip-path="url(#clip1_70_2)">
<rect width="2560" height="1440" transform="translate(-302.562 -689) rotate(5.6767)" fill="#1A1A1A"/>
<rect width="2560" height="1440" transform="translate(-302.562 -689) rotate(5.6767)" fill="url(#paint0_linear_70_2)"/>
<g filter="url(#filter0_i_70_2)">
<path d="M2461.79 92.0927L2172.25 3367.73L-788.024 594.396L2461.79 92.0927Z" fill="url(#paint1_linear_70_2)"/>
</g>
</g>
<path d="M577.383 233.516C577.383 233.047 577.5 232.617 577.734 232.227C577.969 231.81 578.294 231.458 578.711 231.172C579.128 230.859 579.609 230.612 580.156 230.43C580.729 230.247 581.328 230.156 581.953 230.156C583.177 230.156 584.076 230.352 584.648 230.742C585.221 231.133 585.573 231.745 585.703 232.578C586.146 236.042 586.51 239.323 586.797 242.422C587.109 245.495 587.357 248.438 587.539 251.25C587.721 254.036 587.852 256.719 587.93 259.297C588.008 261.849 588.047 264.323 588.047 266.719C588.047 268.021 587.578 268.997 586.641 269.648C585.729 270.299 584.388 270.625 582.617 270.625C581.81 270.625 581.172 270.43 580.703 270.039C580.26 269.674 580.039 269.128 580.039 268.398C580.039 263.919 579.896 259.727 579.609 255.82C579.349 251.888 579.049 248.398 578.711 245.352C578.372 242.305 578.06 239.766 577.773 237.734C577.513 235.677 577.383 234.271 577.383 233.516ZM596.523 238.477C596.523 238.086 596.693 237.708 597.031 237.344C597.37 236.953 597.812 236.615 598.359 236.328C598.906 236.016 599.518 235.768 600.195 235.586C600.898 235.378 601.602 235.273 602.305 235.273C602.695 235.273 603.021 235.378 603.281 235.586C603.568 235.794 603.815 236.198 604.023 236.797C604.232 237.37 604.414 238.19 604.57 239.258C604.753 240.299 604.922 241.667 605.078 243.359C605.182 243.88 605.273 244.284 605.352 244.57C605.456 244.831 605.586 244.961 605.742 244.961C605.977 244.961 606.211 244.557 606.445 243.75C608.346 238.255 611.094 235.508 614.688 235.508C616.354 235.508 617.865 236.029 619.219 237.07C620.599 238.112 621.875 239.818 623.047 242.188C624.245 244.531 625.378 247.63 626.445 251.484C627.513 255.312 628.581 260.039 629.648 265.664C629.701 265.951 629.74 266.211 629.766 266.445C629.792 266.68 629.805 266.901 629.805 267.109C629.805 267.708 629.661 268.229 629.375 268.672C629.115 269.089 628.763 269.44 628.32 269.727C627.878 269.987 627.383 270.182 626.836 270.312C626.289 270.469 625.742 270.547 625.195 270.547C624.102 270.547 623.307 270.43 622.812 270.195C622.344 269.961 622.044 269.518 621.914 268.867C621.159 264.909 620.417 261.393 619.688 258.32C618.984 255.247 618.281 252.669 617.578 250.586C616.901 248.477 616.224 246.875 615.547 245.781C614.87 244.688 614.193 244.141 613.516 244.141C612.839 244.141 612.201 244.57 611.602 245.43C611.029 246.263 610.469 247.578 609.922 249.375C609.375 251.172 608.841 253.451 608.32 256.211C607.826 258.971 607.344 262.266 606.875 266.094C606.745 267.135 606.224 267.969 605.312 268.594C604.401 269.219 603.242 269.531 601.836 269.531C600.898 269.531 600.182 269.336 599.688 268.945C599.193 268.555 598.919 268.021 598.867 267.344C598.633 261.927 598.372 257.474 598.086 253.984C597.826 250.469 597.578 247.656 597.344 245.547C597.109 243.411 596.914 241.823 596.758 240.781C596.602 239.74 596.523 238.971 596.523 238.477ZM643.633 236.094C645.378 236.094 647.174 236.328 649.023 236.797C650.872 237.24 652.565 237.826 654.102 238.555C655.638 239.258 656.901 240.052 657.891 240.938C658.88 241.823 659.375 242.682 659.375 243.516C659.375 243.932 659.193 244.401 658.828 244.922C658.464 245.417 658.021 245.898 657.5 246.367C656.979 246.81 656.406 247.188 655.781 247.5C655.182 247.786 654.648 247.93 654.18 247.93C653.555 247.93 652.852 247.669 652.07 247.148C651.315 246.628 650.469 246.055 649.531 245.43C648.62 244.779 647.617 244.193 646.523 243.672C645.43 243.151 644.245 242.891 642.969 242.891C642.135 242.891 641.445 243.099 640.898 243.516C640.378 243.906 640.117 244.466 640.117 245.195C640.117 245.846 640.43 246.51 641.055 247.188C641.68 247.839 642.5 248.516 643.516 249.219C644.557 249.922 645.729 250.664 647.031 251.445C648.333 252.227 649.661 253.06 651.016 253.945C652.396 254.831 653.737 255.794 655.039 256.836C656.341 257.878 657.5 259.01 658.516 260.234C659.557 261.458 660.391 262.799 661.016 264.258C661.641 265.69 661.953 267.253 661.953 268.945C661.953 270.404 661.693 271.732 661.172 272.93C660.651 274.128 659.909 275.156 658.945 276.016C657.982 276.875 656.836 277.539 655.508 278.008C654.18 278.477 652.721 278.711 651.133 278.711C649.128 278.711 647.279 278.398 645.586 277.773C643.893 277.174 642.435 276.341 641.211 275.273C639.987 274.206 639.023 272.93 638.32 271.445C637.643 269.961 637.305 268.333 637.305 266.562C637.305 264.271 637.708 262.604 638.516 261.562C639.349 260.521 640.651 260 642.422 260C643.516 260 644.388 260.208 645.039 260.625C645.69 261.042 646.016 261.549 646.016 262.148C646.016 262.461 645.964 262.786 645.859 263.125C645.755 263.438 645.638 263.776 645.508 264.141C645.404 264.479 645.299 264.844 645.195 265.234C645.117 265.625 645.078 266.016 645.078 266.406C645.078 267.083 645.234 267.734 645.547 268.359C645.859 268.984 646.276 269.531 646.797 270C647.344 270.495 647.969 270.885 648.672 271.172C649.375 271.458 650.117 271.602 650.898 271.602C652.982 271.602 654.023 270.742 654.023 269.023C654.023 267.669 653.49 266.393 652.422 265.195C651.354 263.971 650.013 262.786 648.398 261.641C646.784 260.469 645.039 259.297 643.164 258.125C641.315 256.953 639.583 255.729 637.969 254.453C636.354 253.177 635.013 251.823 633.945 250.391C632.878 248.932 632.344 247.357 632.344 245.664C632.344 244.258 632.63 242.969 633.203 241.797C633.802 240.625 634.609 239.622 635.625 238.789C636.641 237.93 637.826 237.266 639.18 236.797C640.56 236.328 642.044 236.094 643.633 236.094ZM666.992 224.883C666.992 223.503 667.383 222.539 668.164 221.992C668.945 221.419 670.234 221.133 672.031 221.133C672.682 221.133 673.229 221.198 673.672 221.328C674.141 221.432 674.531 221.641 674.844 221.953C675.182 222.266 675.443 222.682 675.625 223.203C675.833 223.698 676.003 224.336 676.133 225.117C676.445 227.539 676.784 230.039 677.148 232.617C677.539 235.195 677.943 237.786 678.359 240.391C678.516 241.562 679.128 242.148 680.195 242.148C680.482 242.148 680.951 242.122 681.602 242.07C682.279 241.992 683.073 241.914 683.984 241.836C684.896 241.732 685.872 241.628 686.914 241.523C687.982 241.419 689.036 241.328 690.078 241.25C691.146 241.146 692.148 241.068 693.086 241.016C694.049 240.938 694.896 240.898 695.625 240.898C696.198 240.898 696.654 241.016 696.992 241.25C697.331 241.458 697.591 241.745 697.773 242.109C697.982 242.448 698.112 242.839 698.164 243.281C698.242 243.698 698.281 244.128 698.281 244.57C698.281 244.961 698.203 245.365 698.047 245.781C697.917 246.198 697.721 246.576 697.461 246.914C697.227 247.227 696.927 247.487 696.562 247.695C696.198 247.904 695.781 248.008 695.312 248.008C693.047 248.008 690.755 248.086 688.438 248.242C686.146 248.372 683.854 248.555 681.562 248.789C680.391 248.945 679.805 249.531 679.805 250.547C679.805 250.625 679.818 250.729 679.844 250.859C679.87 250.964 679.883 251.055 679.883 251.133C680.195 253.398 680.482 255.521 680.742 257.5C681.029 259.479 681.263 261.25 681.445 262.812C681.654 264.349 681.81 265.638 681.914 266.68C682.044 267.695 682.109 268.372 682.109 268.711C682.109 269.648 682.018 270.43 681.836 271.055C681.654 271.706 681.354 272.227 680.938 272.617C680.521 273.034 679.961 273.32 679.258 273.477C678.581 273.659 677.721 273.75 676.68 273.75C675.69 273.75 674.961 273.516 674.492 273.047C674.023 272.578 673.763 271.862 673.711 270.898C673.555 267.826 673.307 264.74 672.969 261.641C672.63 258.516 672.24 255.404 671.797 252.305C671.562 251.185 670.977 250.625 670.039 250.625C669.961 250.625 669.87 250.638 669.766 250.664C669.661 250.69 669.57 250.703 669.492 250.703C667.878 251.068 666.354 251.432 664.922 251.797C663.49 252.161 662.148 252.552 660.898 252.969C660.195 253.203 659.57 253.372 659.023 253.477C658.477 253.555 657.982 253.594 657.539 253.594C656.94 253.594 656.497 253.333 656.211 252.812C655.924 252.266 655.781 251.589 655.781 250.781C655.781 250.495 655.807 250.169 655.859 249.805C655.911 249.414 656.016 249.036 656.172 248.672C656.302 248.281 656.51 247.93 656.797 247.617C657.057 247.279 657.422 247.005 657.891 246.797C658.984 246.354 660.443 245.898 662.266 245.43C664.089 244.935 666.146 244.479 668.438 244.062C668.958 243.932 669.362 243.724 669.648 243.438C669.961 243.125 670.117 242.669 670.117 242.07C670.117 241.94 670.117 241.81 670.117 241.68C670.117 241.523 670.091 241.367 670.039 241.211C669.622 238.815 669.219 236.641 668.828 234.688C668.464 232.708 668.138 231.016 667.852 229.609C667.591 228.203 667.383 227.096 667.227 226.289C667.07 225.482 666.992 225.013 666.992 224.883ZM720.547 235.859C721.979 235.859 723.359 236.081 724.688 236.523C726.016 236.966 727.188 237.578 728.203 238.359C729.219 239.141 730.026 240.078 730.625 241.172C731.25 242.266 731.562 243.477 731.562 244.805C731.562 245.352 731.432 245.885 731.172 246.406C730.938 246.901 730.612 247.344 730.195 247.734C729.779 248.099 729.297 248.398 728.75 248.633C728.229 248.841 727.682 248.945 727.109 248.945C727.057 248.945 727.005 248.958 726.953 248.984C726.927 248.984 726.888 248.984 726.836 248.984C726.784 249.01 726.732 249.023 726.68 249.023L726.836 252.148C726.94 255.872 727.461 258.594 728.398 260.312C729.362 262.031 730.612 262.891 732.148 262.891C732.695 262.891 733.177 262.839 733.594 262.734C734.036 262.63 734.44 262.513 734.805 262.383C735.195 262.227 735.56 262.096 735.898 261.992C736.237 261.888 736.576 261.836 736.914 261.836C737.513 261.836 738.034 262.096 738.477 262.617C738.945 263.138 739.18 263.763 739.18 264.492C739.18 265.221 738.893 265.951 738.32 266.68C737.773 267.409 737.044 268.073 736.133 268.672C735.221 269.245 734.193 269.714 733.047 270.078C731.901 270.443 730.742 270.625 729.57 270.625C727.539 270.625 725.755 269.792 724.219 268.125C722.682 266.432 721.589 263.958 720.938 260.703C720.781 260.182 720.573 259.922 720.312 259.922C720 259.922 719.727 260.078 719.492 260.391C716.914 263.646 714.167 266.094 711.25 267.734C708.333 269.349 705.456 270.156 702.617 270.156C701.289 270.156 700.091 269.961 699.023 269.57C697.956 269.18 697.044 268.633 696.289 267.93C695.56 267.201 694.987 266.328 694.57 265.312C694.18 264.271 693.984 263.112 693.984 261.836C693.984 260.039 694.375 258.151 695.156 256.172C695.964 254.193 697.044 252.24 698.398 250.312C699.753 248.385 701.315 246.549 703.086 244.805C704.883 243.06 706.758 241.523 708.711 240.195C710.69 238.867 712.695 237.812 714.727 237.031C716.758 236.25 718.698 235.859 720.547 235.859ZM719.258 249.375C719.727 248.49 720.156 247.852 720.547 247.461C720.938 247.044 721.497 246.771 722.227 246.641C722.799 246.562 723.086 246.38 723.086 246.094C723.086 245.885 723.008 245.664 722.852 245.43C722.357 244.753 721.836 244.167 721.289 243.672C720.742 243.151 720.013 242.891 719.102 242.891C718.112 242.891 717.005 243.177 715.781 243.75C714.557 244.323 713.307 245.091 712.031 246.055C710.781 246.992 709.544 248.073 708.32 249.297C707.122 250.495 706.055 251.732 705.117 253.008C704.18 254.284 703.424 255.547 702.852 256.797C702.279 258.047 701.992 259.167 701.992 260.156C701.992 261.042 702.227 261.732 702.695 262.227C703.19 262.721 703.854 262.969 704.688 262.969C706.823 262.969 709.154 261.836 711.68 259.57C714.206 257.305 716.732 253.906 719.258 249.375ZM738.359 225.508C738.359 224.154 738.75 223.19 739.531 222.617C740.312 222.044 741.602 221.758 743.398 221.758C744.023 221.758 744.57 221.823 745.039 221.953C745.508 222.083 745.898 222.305 746.211 222.617C746.523 222.904 746.771 223.307 746.953 223.828C747.161 224.323 747.331 224.961 747.461 225.742C747.799 228.06 748.138 230.495 748.477 233.047C748.841 235.573 749.18 238.099 749.492 240.625C749.831 243.125 750.143 245.573 750.43 247.969C750.716 250.339 750.964 252.552 751.172 254.609C751.406 256.641 751.576 258.451 751.68 260.039C751.81 261.602 751.875 262.839 751.875 263.75C751.875 264.688 751.784 265.482 751.602 266.133C751.445 266.784 751.159 267.305 750.742 267.695C750.352 268.086 749.831 268.372 749.18 268.555C748.555 268.711 747.773 268.789 746.836 268.789C745.924 268.789 745.195 268.555 744.648 268.086C744.128 267.617 743.867 266.901 743.867 265.938C743.867 264.948 743.789 263.633 743.633 261.992C743.477 260.326 743.268 258.477 743.008 256.445C742.747 254.414 742.448 252.253 742.109 249.961C741.797 247.669 741.458 245.404 741.094 243.164C740.755 240.924 740.417 238.776 740.078 236.719C739.766 234.635 739.479 232.799 739.219 231.211C738.958 229.596 738.75 228.281 738.594 227.266C738.438 226.224 738.359 225.638 738.359 225.508ZM756.016 225.508C756.016 224.154 756.406 223.19 757.188 222.617C757.969 222.044 759.258 221.758 761.055 221.758C761.68 221.758 762.227 221.823 762.695 221.953C763.164 222.083 763.555 222.305 763.867 222.617C764.18 222.904 764.427 223.307 764.609 223.828C764.818 224.323 764.987 224.961 765.117 225.742C765.456 228.06 765.794 230.495 766.133 233.047C766.497 235.573 766.836 238.099 767.148 240.625C767.487 243.125 767.799 245.573 768.086 247.969C768.372 250.339 768.62 252.552 768.828 254.609C769.062 256.641 769.232 258.451 769.336 260.039C769.466 261.602 769.531 262.839 769.531 263.75C769.531 264.688 769.44 265.482 769.258 266.133C769.102 266.784 768.815 267.305 768.398 267.695C768.008 268.086 767.487 268.372 766.836 268.555C766.211 268.711 765.43 268.789 764.492 268.789C763.581 268.789 762.852 268.555 762.305 268.086C761.784 267.617 761.523 266.901 761.523 265.938C761.523 264.948 761.445 263.633 761.289 261.992C761.133 260.326 760.924 258.477 760.664 256.445C760.404 254.414 760.104 252.253 759.766 249.961C759.453 247.669 759.115 245.404 758.75 243.164C758.411 240.924 758.073 238.776 757.734 236.719C757.422 234.635 757.135 232.799 756.875 231.211C756.615 229.596 756.406 228.281 756.25 227.266C756.094 226.224 756.016 225.638 756.016 225.508ZM811.211 235.938C809.753 235.938 808.398 236.289 807.148 236.992C805.924 237.669 804.844 238.62 803.906 239.844C802.995 241.042 802.279 242.461 801.758 244.102C801.237 245.742 800.977 247.5 800.977 249.375C800.977 251.302 801.406 253.086 802.266 254.727C803.151 256.341 804.362 257.76 805.898 258.984C807.461 260.182 809.284 261.12 811.367 261.797C813.477 262.474 815.768 262.812 818.242 262.812C820.039 262.812 821.732 262.656 823.32 262.344C824.935 262.005 826.341 261.562 827.539 261.016C828.737 260.469 829.688 259.831 830.391 259.102C831.094 258.346 831.445 257.552 831.445 256.719C831.445 256.068 831.328 255.534 831.094 255.117C830.859 254.674 830.586 254.284 830.273 253.945C829.987 253.581 829.727 253.229 829.492 252.891C829.258 252.526 829.141 252.07 829.141 251.523C829.141 251.003 829.271 250.508 829.531 250.039C829.792 249.57 830.143 249.154 830.586 248.789C831.055 248.424 831.576 248.138 832.148 247.93C832.747 247.721 833.359 247.617 833.984 247.617C834.74 247.617 835.443 247.812 836.094 248.203C836.771 248.594 837.344 249.141 837.812 249.844C838.307 250.521 838.685 251.328 838.945 252.266C839.232 253.177 839.375 254.154 839.375 255.195C839.375 257.305 838.815 259.271 837.695 261.094C836.576 262.891 835.026 264.44 833.047 265.742C831.068 267.044 828.724 268.073 826.016 268.828C823.307 269.557 820.365 269.922 817.188 269.922C813.672 269.922 810.43 269.453 807.461 268.516C804.492 267.552 801.927 266.224 799.766 264.531C797.63 262.839 795.964 260.833 794.766 258.516C793.568 256.198 792.969 253.659 792.969 250.898C792.969 247.878 793.49 245.026 794.531 242.344C795.599 239.661 797.044 237.318 798.867 235.312C800.69 233.307 802.812 231.719 805.234 230.547C807.682 229.375 810.286 228.789 813.047 228.789C814.271 228.789 815.391 228.932 816.406 229.219C817.448 229.479 818.346 229.857 819.102 230.352C819.857 230.846 820.443 231.432 820.859 232.109C821.302 232.76 821.523 233.477 821.523 234.258C821.523 234.883 821.38 235.482 821.094 236.055C820.833 236.602 820.482 237.096 820.039 237.539C819.596 237.956 819.076 238.294 818.477 238.555C817.904 238.815 817.292 238.945 816.641 238.945C815.964 238.945 815.417 238.789 815 238.477C814.609 238.164 814.245 237.826 813.906 237.461C813.568 237.07 813.203 236.719 812.812 236.406C812.422 236.094 811.888 235.938 811.211 235.938ZM843.984 230.156C843.229 230.156 842.513 230.052 841.836 229.844C841.185 229.609 840.612 229.297 840.117 228.906C839.648 228.49 839.271 228.008 838.984 227.461C838.698 226.914 838.555 226.315 838.555 225.664C838.555 224.57 838.984 223.685 839.844 223.008C840.729 222.331 841.901 221.992 843.359 221.992C844.036 221.992 844.688 222.122 845.312 222.383C845.938 222.617 846.484 222.943 846.953 223.359C847.448 223.776 847.839 224.271 848.125 224.844C848.411 225.391 848.555 225.964 848.555 226.562C848.555 227.682 848.138 228.568 847.305 229.219C846.497 229.844 845.391 230.156 843.984 230.156ZM838.633 242.07C838.633 241.159 839.023 240.417 839.805 239.844C840.612 239.245 841.667 238.945 842.969 238.945C845.312 238.945 846.562 239.753 846.719 241.367C846.823 242.487 846.927 243.75 847.031 245.156C847.161 246.562 847.279 248.06 847.383 249.648C847.513 251.211 847.617 252.839 847.695 254.531C847.799 256.198 847.891 257.852 847.969 259.492C848.047 261.107 848.112 262.669 848.164 264.18C848.216 265.69 848.242 267.07 848.242 268.32C848.242 269.622 847.773 270.599 846.836 271.25C845.924 271.901 844.583 272.227 842.812 272.227C842.005 272.227 841.367 272.031 840.898 271.641C840.456 271.276 840.234 270.729 840.234 270C840.234 266.406 840.143 263.047 839.961 259.922C839.805 256.771 839.622 253.971 839.414 251.523C839.232 249.076 839.049 247.044 838.867 245.43C838.711 243.789 838.633 242.669 838.633 242.07ZM853.359 225.508C853.359 224.154 853.75 223.19 854.531 222.617C855.312 222.044 856.602 221.758 858.398 221.758C859.023 221.758 859.57 221.823 860.039 221.953C860.508 222.083 860.898 222.305 861.211 222.617C861.523 222.904 861.771 223.307 861.953 223.828C862.161 224.323 862.331 224.961 862.461 225.742C862.799 228.06 863.138 230.495 863.477 233.047C863.841 235.573 864.18 238.099 864.492 240.625C864.831 243.125 865.143 245.573 865.43 247.969C865.716 250.339 865.964 252.552 866.172 254.609C866.406 256.641 866.576 258.451 866.68 260.039C866.81 261.602 866.875 262.839 866.875 263.75C866.875 264.688 866.784 265.482 866.602 266.133C866.445 266.784 866.159 267.305 865.742 267.695C865.352 268.086 864.831 268.372 864.18 268.555C863.555 268.711 862.773 268.789 861.836 268.789C860.924 268.789 860.195 268.555 859.648 268.086C859.128 267.617 858.867 266.901 858.867 265.938C858.867 264.948 858.789 263.633 858.633 261.992C858.477 260.326 858.268 258.477 858.008 256.445C857.747 254.414 857.448 252.253 857.109 249.961C856.797 247.669 856.458 245.404 856.094 243.164C855.755 240.924 855.417 238.776 855.078 236.719C854.766 234.635 854.479 232.799 854.219 231.211C853.958 229.596 853.75 228.281 853.594 227.266C853.438 226.224 853.359 225.638 853.359 225.508ZM878.984 230.156C878.229 230.156 877.513 230.052 876.836 229.844C876.185 229.609 875.612 229.297 875.117 228.906C874.648 228.49 874.271 228.008 873.984 227.461C873.698 226.914 873.555 226.315 873.555 225.664C873.555 224.57 873.984 223.685 874.844 223.008C875.729 222.331 876.901 221.992 878.359 221.992C879.036 221.992 879.688 222.122 880.312 222.383C880.938 222.617 881.484 222.943 881.953 223.359C882.448 223.776 882.839 224.271 883.125 224.844C883.411 225.391 883.555 225.964 883.555 226.562C883.555 227.682 883.138 228.568 882.305 229.219C881.497 229.844 880.391 230.156 878.984 230.156ZM873.633 242.07C873.633 241.159 874.023 240.417 874.805 239.844C875.612 239.245 876.667 238.945 877.969 238.945C880.312 238.945 881.562 239.753 881.719 241.367C881.823 242.487 881.927 243.75 882.031 245.156C882.161 246.562 882.279 248.06 882.383 249.648C882.513 251.211 882.617 252.839 882.695 254.531C882.799 256.198 882.891 257.852 882.969 259.492C883.047 261.107 883.112 262.669 883.164 264.18C883.216 265.69 883.242 267.07 883.242 268.32C883.242 269.622 882.773 270.599 881.836 271.25C880.924 271.901 879.583 272.227 877.812 272.227C877.005 272.227 876.367 272.031 875.898 271.641C875.456 271.276 875.234 270.729 875.234 270C875.234 266.406 875.143 263.047 874.961 259.922C874.805 256.771 874.622 253.971 874.414 251.523C874.232 249.076 874.049 247.044 873.867 245.43C873.711 243.789 873.633 242.669 873.633 242.07ZM898.672 256.172C898.672 259.661 899.206 262.357 900.273 264.258C901.341 266.159 902.891 267.109 904.922 267.109C906.198 267.109 907.37 266.732 908.438 265.977C909.531 265.221 910.469 264.167 911.25 262.812C912.031 261.458 912.63 259.857 913.047 258.008C913.49 256.133 913.711 254.102 913.711 251.914C913.711 250.586 913.659 249.44 913.555 248.477C913.451 247.487 913.333 246.615 913.203 245.859C913.099 245.078 912.995 244.388 912.891 243.789C912.786 243.19 912.734 242.617 912.734 242.07C912.734 241.237 913.086 240.638 913.789 240.273C914.492 239.883 915.612 239.688 917.148 239.688C919.102 239.688 920.612 240.13 921.68 241.016C922.773 241.901 923.32 243.19 923.32 244.883C923.32 249.492 922.865 253.633 921.953 257.305C921.068 260.977 919.779 264.102 918.086 266.68C916.419 269.232 914.388 271.198 911.992 272.578C909.596 273.958 906.914 274.648 903.945 274.648C901.836 274.648 899.883 274.206 898.086 273.32C896.315 272.461 894.779 271.25 893.477 269.688C892.201 268.099 891.198 266.224 890.469 264.062C889.74 261.875 889.375 259.479 889.375 256.875C889.375 255.885 889.401 254.831 889.453 253.711C889.505 252.591 889.583 251.393 889.688 250.117C889.792 248.815 889.922 247.409 890.078 245.898C890.26 244.388 890.456 242.747 890.664 240.977C890.742 240.221 891.094 239.622 891.719 239.18C892.37 238.711 893.19 238.477 894.18 238.477C895.065 238.477 895.898 238.568 896.68 238.75C897.461 238.932 898.125 239.18 898.672 239.492C899.245 239.805 899.688 240.169 900 240.586C900.339 241.003 900.508 241.445 900.508 241.914C900.508 242.383 900.404 243.125 900.195 244.141C900.013 245.13 899.805 246.276 899.57 247.578C899.362 248.854 899.154 250.247 898.945 251.758C898.763 253.242 898.672 254.714 898.672 256.172ZM931.523 271.68C931.341 268.216 931.042 265.026 930.625 262.109C930.234 259.167 929.818 256.602 929.375 254.414C928.958 252.227 928.581 250.456 928.242 249.102C927.93 247.747 927.773 246.901 927.773 246.562C927.773 246.068 927.956 245.586 928.32 245.117C928.711 244.648 929.193 244.245 929.766 243.906C930.339 243.542 930.951 243.255 931.602 243.047C932.279 242.839 932.891 242.734 933.438 242.734C933.88 242.734 934.258 242.812 934.57 242.969C934.909 243.125 935.143 243.385 935.273 243.75C935.404 244.193 935.521 244.661 935.625 245.156C935.755 245.625 935.885 246.198 936.016 246.875C936.172 247.839 936.38 248.32 936.641 248.32C936.927 248.32 937.253 247.891 937.617 247.031C938.138 245.833 938.698 244.844 939.297 244.062C939.896 243.281 940.534 242.669 941.211 242.227C941.914 241.758 942.63 241.432 943.359 241.25C944.115 241.068 944.896 240.977 945.703 240.977C948.151 240.977 950.221 241.94 951.914 243.867C953.633 245.794 954.974 248.581 955.938 252.227C956.068 252.643 956.185 252.917 956.289 253.047C956.393 253.151 956.51 253.203 956.641 253.203C956.771 253.203 956.901 253.151 957.031 253.047C957.188 252.917 957.331 252.669 957.461 252.305C958.086 250.612 958.815 249.18 959.648 248.008C960.482 246.81 961.341 245.846 962.227 245.117C963.138 244.362 964.062 243.815 965 243.477C965.938 243.138 966.836 242.969 967.695 242.969C969.284 242.969 970.716 243.555 971.992 244.727C973.294 245.872 974.44 247.656 975.43 250.078C976.445 252.474 977.318 255.521 978.047 259.219C978.802 262.891 979.427 267.253 979.922 272.305C979.922 273.711 979.492 274.688 978.633 275.234C977.773 275.807 976.602 276.094 975.117 276.094C974.154 276.094 973.398 275.885 972.852 275.469C972.305 275.052 971.992 274.505 971.914 273.828C971.576 270.208 971.198 266.992 970.781 264.18C970.391 261.341 969.961 258.958 969.492 257.031C969.023 255.078 968.503 253.594 967.93 252.578C967.383 251.562 966.771 251.055 966.094 251.055C965.755 251.055 965.326 251.302 964.805 251.797C964.31 252.292 963.776 253.203 963.203 254.531C962.63 255.833 962.031 257.63 961.406 259.922C960.781 262.188 960.182 265.091 959.609 268.633C959.453 269.622 958.971 270.378 958.164 270.898C957.383 271.419 956.419 271.68 955.273 271.68C953.945 271.68 953.021 271.471 952.5 271.055C952.005 270.638 951.732 269.935 951.68 268.945C951.576 267.227 951.393 265.521 951.133 263.828C950.898 262.109 950.599 260.482 950.234 258.945C949.87 257.383 949.466 255.951 949.023 254.648C948.581 253.32 948.112 252.174 947.617 251.211C947.122 250.221 946.615 249.453 946.094 248.906C945.573 248.359 945.065 248.086 944.57 248.086C943.919 248.086 943.281 248.542 942.656 249.453C942.057 250.365 941.51 251.654 941.016 253.32C940.547 254.987 940.169 256.992 939.883 259.336C939.596 261.68 939.453 264.297 939.453 267.188C939.453 267.682 939.466 268.177 939.492 268.672C939.518 269.141 939.531 269.635 939.531 270.156C939.531 270.938 939.401 271.576 939.141 272.07C938.906 272.565 938.555 272.956 938.086 273.242C937.643 273.529 937.122 273.724 936.523 273.828C935.924 273.932 935.273 273.984 934.57 273.984C933.919 273.984 933.398 273.932 933.008 273.828C932.617 273.75 932.318 273.62 932.109 273.438C931.901 273.255 931.758 273.008 931.68 272.695C931.602 272.409 931.549 272.07 931.523 271.68ZM1009.69 230.156C1008.93 230.156 1008.22 230.052 1007.54 229.844C1006.89 229.609 1006.32 229.297 1005.82 228.906C1005.35 228.49 1004.97 228.008 1004.69 227.461C1004.4 226.914 1004.26 226.315 1004.26 225.664C1004.26 224.57 1004.69 223.685 1005.55 223.008C1006.43 222.331 1007.6 221.992 1009.06 221.992C1009.74 221.992 1010.39 222.122 1011.02 222.383C1011.64 222.617 1012.19 222.943 1012.66 223.359C1013.15 223.776 1013.54 224.271 1013.83 224.844C1014.11 225.391 1014.26 225.964 1014.26 226.562C1014.26 227.682 1013.84 228.568 1013.01 229.219C1012.2 229.844 1011.09 230.156 1009.69 230.156ZM1004.34 242.07C1004.34 241.159 1004.73 240.417 1005.51 239.844C1006.32 239.245 1007.37 238.945 1008.67 238.945C1011.02 238.945 1012.27 239.753 1012.42 241.367C1012.53 242.487 1012.63 243.75 1012.73 245.156C1012.86 246.562 1012.98 248.06 1013.09 249.648C1013.22 251.211 1013.32 252.839 1013.4 254.531C1013.5 256.198 1013.59 257.852 1013.67 259.492C1013.75 261.107 1013.82 262.669 1013.87 264.18C1013.92 265.69 1013.95 267.07 1013.95 268.32C1013.95 269.622 1013.48 270.599 1012.54 271.25C1011.63 271.901 1010.29 272.227 1008.52 272.227C1007.71 272.227 1007.07 272.031 1006.6 271.641C1006.16 271.276 1005.94 270.729 1005.94 270C1005.94 266.406 1005.85 263.047 1005.66 259.922C1005.51 256.771 1005.33 253.971 1005.12 251.523C1004.93 249.076 1004.75 247.044 1004.57 245.43C1004.41 243.789 1004.34 242.669 1004.34 242.07ZM1021.84 238.477C1021.84 238.086 1022.01 237.708 1022.34 237.344C1022.68 236.953 1023.12 236.615 1023.67 236.328C1024.22 236.016 1024.83 235.768 1025.51 235.586C1026.21 235.378 1026.91 235.273 1027.62 235.273C1028.01 235.273 1028.33 235.378 1028.59 235.586C1028.88 235.794 1029.13 236.198 1029.34 236.797C1029.54 237.37 1029.73 238.19 1029.88 239.258C1030.07 240.299 1030.23 241.667 1030.39 243.359C1030.49 243.88 1030.59 244.284 1030.66 244.57C1030.77 244.831 1030.9 244.961 1031.05 244.961C1031.29 244.961 1031.52 244.557 1031.76 243.75C1033.66 238.255 1036.41 235.508 1040 235.508C1041.67 235.508 1043.18 236.029 1044.53 237.07C1045.91 238.112 1047.19 239.818 1048.36 242.188C1049.56 244.531 1050.69 247.63 1051.76 251.484C1052.83 255.312 1053.89 260.039 1054.96 265.664C1055.01 265.951 1055.05 266.211 1055.08 266.445C1055.1 266.68 1055.12 266.901 1055.12 267.109C1055.12 267.708 1054.97 268.229 1054.69 268.672C1054.43 269.089 1054.08 269.44 1053.63 269.727C1053.19 269.987 1052.7 270.182 1052.15 270.312C1051.6 270.469 1051.05 270.547 1050.51 270.547C1049.41 270.547 1048.62 270.43 1048.12 270.195C1047.66 269.961 1047.36 269.518 1047.23 268.867C1046.47 264.909 1045.73 261.393 1045 258.32C1044.3 255.247 1043.59 252.669 1042.89 250.586C1042.21 248.477 1041.54 246.875 1040.86 245.781C1040.18 244.688 1039.51 244.141 1038.83 244.141C1038.15 244.141 1037.51 244.57 1036.91 245.43C1036.34 246.263 1035.78 247.578 1035.23 249.375C1034.69 251.172 1034.15 253.451 1033.63 256.211C1033.14 258.971 1032.66 262.266 1032.19 266.094C1032.06 267.135 1031.54 267.969 1030.62 268.594C1029.71 269.219 1028.55 269.531 1027.15 269.531C1026.21 269.531 1025.49 269.336 1025 268.945C1024.51 268.555 1024.23 268.021 1024.18 267.344C1023.95 261.927 1023.68 257.474 1023.4 253.984C1023.14 250.469 1022.89 247.656 1022.66 245.547C1022.42 243.411 1022.23 241.823 1022.07 240.781C1021.91 239.74 1021.84 238.971 1021.84 238.477ZM1113.36 233.047C1113.36 234.062 1113.02 235.013 1112.34 235.898C1111.69 236.784 1110.86 237.643 1109.84 238.477C1108.85 239.31 1107.77 240.117 1106.6 240.898C1105.43 241.68 1104.34 242.474 1103.32 243.281C1102.33 244.089 1101.5 244.909 1100.82 245.742C1100.17 246.576 1099.84 247.461 1099.84 248.398C1099.84 249.18 1100.39 249.935 1101.48 250.664C1102.58 251.393 1104.15 252.122 1106.21 252.852C1108.27 253.581 1110.76 254.336 1113.67 255.117C1116.59 255.872 1119.87 256.68 1123.52 257.539C1125.34 258.034 1126.25 258.958 1126.25 260.312C1126.25 260.833 1126.12 261.341 1125.86 261.836C1125.62 262.331 1125.3 262.773 1124.88 263.164C1124.47 263.529 1123.98 263.828 1123.44 264.062C1122.92 264.297 1122.38 264.414 1121.84 264.414C1120.53 264.414 1119.05 264.219 1117.38 263.828C1115.74 263.438 1114.04 262.956 1112.27 262.383C1110.49 261.81 1108.72 261.185 1106.95 260.508C1105.18 259.805 1103.52 259.167 1101.95 258.594C1100.42 258.021 1099.05 257.539 1097.85 257.148C1096.68 256.758 1095.79 256.562 1095.2 256.562C1094.73 256.562 1094.27 256.784 1093.83 257.227C1093.41 257.643 1093.02 258.229 1092.66 258.984C1092.32 259.74 1092.03 260.638 1091.8 261.68C1091.56 262.695 1091.39 263.815 1091.29 265.039C1091.16 266.419 1090.66 267.448 1089.8 268.125C1088.97 268.776 1087.81 269.102 1086.33 269.102C1084.79 269.102 1083.91 268.385 1083.67 266.953C1083.28 264.766 1082.8 262.539 1082.23 260.273C1081.68 258.008 1081.07 255.742 1080.39 253.477C1079.74 251.211 1079.02 248.971 1078.24 246.758C1077.49 244.544 1076.69 242.422 1075.86 240.391C1075.65 239.948 1075.49 239.544 1075.39 239.18C1075.31 238.789 1075.27 238.398 1075.27 238.008C1075.27 237.669 1075.38 237.357 1075.59 237.07C1075.79 236.758 1076.08 236.484 1076.45 236.25C1076.81 236.016 1077.23 235.833 1077.7 235.703C1078.19 235.573 1078.7 235.508 1079.22 235.508C1080.29 235.508 1081.13 235.729 1081.76 236.172C1082.38 236.615 1083.02 237.279 1083.67 238.164C1083.98 238.581 1084.28 239.141 1084.57 239.844C1084.86 240.521 1085.13 241.25 1085.39 242.031C1085.65 242.812 1085.91 243.607 1086.17 244.414C1086.43 245.195 1086.68 245.911 1086.91 246.562C1087.17 247.188 1087.42 247.708 1087.66 248.125C1087.92 248.516 1088.16 248.711 1088.4 248.711C1088.61 248.711 1088.78 248.62 1088.91 248.438C1089.06 248.255 1089.24 247.982 1089.45 247.617C1090.81 244.805 1092.29 242.24 1093.91 239.922C1095.52 237.578 1097.17 235.586 1098.87 233.945C1100.56 232.279 1102.25 230.99 1103.95 230.078C1105.66 229.167 1107.3 228.711 1108.87 228.711C1109.49 228.711 1110.08 228.828 1110.62 229.062C1111.17 229.271 1111.64 229.57 1112.03 229.961C1112.45 230.352 1112.77 230.82 1113.01 231.367C1113.24 231.888 1113.36 232.448 1113.36 233.047ZM1128.12 230.156C1127.37 230.156 1126.65 230.052 1125.98 229.844C1125.33 229.609 1124.75 229.297 1124.26 228.906C1123.79 228.49 1123.41 228.008 1123.12 227.461C1122.84 226.914 1122.7 226.315 1122.7 225.664C1122.7 224.57 1123.12 223.685 1123.98 223.008C1124.87 222.331 1126.04 221.992 1127.5 221.992C1128.18 221.992 1128.83 222.122 1129.45 222.383C1130.08 222.617 1130.62 222.943 1131.09 223.359C1131.59 223.776 1131.98 224.271 1132.27 224.844C1132.55 225.391 1132.7 225.964 1132.7 226.562C1132.7 227.682 1132.28 228.568 1131.45 229.219C1130.64 229.844 1129.53 230.156 1128.12 230.156ZM1122.77 242.07C1122.77 241.159 1123.16 240.417 1123.95 239.844C1124.75 239.245 1125.81 238.945 1127.11 238.945C1129.45 238.945 1130.7 239.753 1130.86 241.367C1130.96 242.487 1131.07 243.75 1131.17 245.156C1131.3 246.562 1131.42 248.06 1131.52 249.648C1131.65 251.211 1131.76 252.839 1131.84 254.531C1131.94 256.198 1132.03 257.852 1132.11 259.492C1132.19 261.107 1132.25 262.669 1132.3 264.18C1132.36 265.69 1132.38 267.07 1132.38 268.32C1132.38 269.622 1131.91 270.599 1130.98 271.25C1130.07 271.901 1128.72 272.227 1126.95 272.227C1126.15 272.227 1125.51 272.031 1125.04 271.641C1124.6 271.276 1124.38 270.729 1124.38 270C1124.38 266.406 1124.28 263.047 1124.1 259.922C1123.95 256.771 1123.76 253.971 1123.55 251.523C1123.37 249.076 1123.19 247.044 1123.01 245.43C1122.85 243.789 1122.77 242.669 1122.77 242.07ZM1140.27 238.477C1140.27 238.086 1140.44 237.708 1140.78 237.344C1141.12 236.953 1141.56 236.615 1142.11 236.328C1142.66 236.016 1143.27 235.768 1143.95 235.586C1144.65 235.378 1145.35 235.273 1146.05 235.273C1146.45 235.273 1146.77 235.378 1147.03 235.586C1147.32 235.794 1147.57 236.198 1147.77 236.797C1147.98 237.37 1148.16 238.19 1148.32 239.258C1148.5 240.299 1148.67 241.667 1148.83 243.359C1148.93 243.88 1149.02 244.284 1149.1 244.57C1149.21 244.831 1149.34 244.961 1149.49 244.961C1149.73 244.961 1149.96 244.557 1150.2 243.75C1152.1 238.255 1154.84 235.508 1158.44 235.508C1160.1 235.508 1161.61 236.029 1162.97 237.07C1164.35 238.112 1165.62 239.818 1166.8 242.188C1167.99 244.531 1169.13 247.63 1170.2 251.484C1171.26 255.312 1172.33 260.039 1173.4 265.664C1173.45 265.951 1173.49 266.211 1173.52 266.445C1173.54 266.68 1173.55 266.901 1173.55 267.109C1173.55 267.708 1173.41 268.229 1173.12 268.672C1172.86 269.089 1172.51 269.44 1172.07 269.727C1171.63 269.987 1171.13 270.182 1170.59 270.312C1170.04 270.469 1169.49 270.547 1168.95 270.547C1167.85 270.547 1167.06 270.43 1166.56 270.195C1166.09 269.961 1165.79 269.518 1165.66 268.867C1164.91 264.909 1164.17 261.393 1163.44 258.32C1162.73 255.247 1162.03 252.669 1161.33 250.586C1160.65 248.477 1159.97 246.875 1159.3 245.781C1158.62 244.688 1157.94 244.141 1157.27 244.141C1156.59 244.141 1155.95 244.57 1155.35 245.43C1154.78 246.263 1154.22 247.578 1153.67 249.375C1153.12 251.172 1152.59 253.451 1152.07 256.211C1151.58 258.971 1151.09 262.266 1150.62 266.094C1150.49 267.135 1149.97 267.969 1149.06 268.594C1148.15 269.219 1146.99 269.531 1145.59 269.531C1144.65 269.531 1143.93 269.336 1143.44 268.945C1142.94 268.555 1142.67 268.021 1142.62 267.344C1142.38 261.927 1142.12 257.474 1141.84 253.984C1141.58 250.469 1141.33 247.656 1141.09 245.547C1140.86 243.411 1140.66 241.823 1140.51 240.781C1140.35 239.74 1140.27 238.971 1140.27 238.477ZM1173.87 240.156C1173.53 240.208 1173.24 240.247 1173.01 240.273C1172.77 240.299 1172.58 240.312 1172.42 240.312C1171.54 240.26 1170.91 240.013 1170.55 239.57C1170.18 239.102 1170 238.333 1170 237.266C1170 235.156 1171.02 233.828 1173.05 233.281C1174.84 232.865 1176.77 232.565 1178.83 232.383C1180.89 232.174 1183.18 232.07 1185.7 232.07C1189.09 232.07 1192.45 232.396 1195.78 233.047C1199.14 233.698 1202.33 234.596 1205.35 235.742C1208.4 236.862 1211.22 238.203 1213.83 239.766C1216.43 241.302 1218.68 242.982 1220.59 244.805C1222.51 246.602 1224.01 248.503 1225.08 250.508C1226.17 252.487 1226.72 254.479 1226.72 256.484C1226.72 258.516 1226.03 260.456 1224.65 262.305C1223.29 264.128 1221.46 265.742 1219.14 267.148C1216.82 268.555 1214.14 269.674 1211.09 270.508C1208.05 271.341 1204.86 271.758 1201.52 271.758C1198.87 271.758 1196.09 271.51 1193.2 271.016C1190.31 270.521 1187.12 269.727 1183.63 268.633C1182.02 268.19 1181.21 267.201 1181.21 265.664C1181.21 265.326 1181.29 265.013 1181.45 264.727C1181.6 264.44 1181.76 264.167 1181.91 263.906C1182.1 263.646 1182.27 263.398 1182.42 263.164C1182.58 262.904 1182.66 262.643 1182.66 262.383C1182.66 260.898 1182.58 259.31 1182.42 257.617C1182.29 255.924 1182.1 254.232 1181.84 252.539C1181.6 250.846 1181.32 249.232 1180.98 247.695C1180.66 246.133 1180.34 244.753 1180 243.555C1179.66 242.357 1179.31 241.406 1178.95 240.703C1178.61 239.974 1178.29 239.609 1178.01 239.609C1177.57 239.609 1177.02 239.661 1176.37 239.766C1175.74 239.87 1174.91 240 1173.87 240.156ZM1188.91 239.531C1188.15 239.531 1187.77 239.792 1187.77 240.312C1187.77 240.443 1187.81 240.664 1187.89 240.977C1187.97 241.289 1188.09 241.784 1188.24 242.461C1188.48 243.555 1188.7 244.727 1188.91 245.977C1189.11 247.227 1189.32 248.633 1189.53 250.195C1189.74 251.732 1189.93 253.464 1190.12 255.391C1190.33 257.292 1190.53 259.44 1190.74 261.836C1190.77 262.227 1191.12 262.604 1191.8 262.969C1192.47 263.307 1193.37 263.62 1194.49 263.906C1195.61 264.167 1196.89 264.388 1198.32 264.57C1199.78 264.727 1201.28 264.805 1202.81 264.805C1204.84 264.805 1206.78 264.57 1208.63 264.102C1210.51 263.607 1212.15 262.956 1213.55 262.148C1214.99 261.341 1216.12 260.404 1216.95 259.336C1217.81 258.268 1218.24 257.161 1218.24 256.016C1218.24 254.115 1217.49 252.266 1215.98 250.469C1214.49 248.672 1212.43 247.044 1209.8 245.586C1207.17 244.102 1204.08 242.839 1200.51 241.797C1196.94 240.729 1193.07 239.974 1188.91 239.531Z" fill="white"/>
</g>
<defs>
<filter id="filter0_i_70_2" x="-788.024" y="92.0928" width="3249.82" height="3279.63" filterUnits="userSpaceOnUse" color-interpolation-filters="sRGB">
<feFlood flood-opacity="0" result="BackgroundImageFix"/>
<feBlend mode="normal" in="SourceGraphic" in2="BackgroundImageFix" result="shape"/>
<feColorMatrix in="SourceAlpha" type="matrix" values="0 0 0 0 0 0 0 0 0 0 0 0 0 0 0 0 0 0 127 0" result="hardAlpha"/>
<feOffset dy="20"/>
<feGaussianBlur stdDeviation="2"/>
<feComposite in2="hardAlpha" operator="arithmetic" k2="-1" k3="1"/>
<feColorMatrix type="matrix" values="0 0 0 0 0.05 0 0 0 0 0.00458333 0 0 0 0 0.00458333 0 0 0 0.37 0"/>
<feBlend mode="normal" in2="shape" result="effect1_innerShadow_70_2"/>
</filter>
<linearGradient id="paint0_linear_70_2" x1="1280" y1="0" x2="1280" y2="1427.5" gradientUnits="userSpaceOnUse">
<stop stop-color="#030303"/>
<stop offset="1" stop-color="#302727" stop-opacity="0"/>
</linearGradient>
<linearGradient id="paint1_linear_70_2" x1="2461.79" y1="92.0927" x2="2570.21" y2="1416.99" gradientUnits="userSpaceOnUse">
<stop stop-color="#C61C1C"/>
<stop offset="1"/>
</linearGradient>
<clipPath id="clip0_70_2">
<rect width="1800" height="510" fill="white"/>
</clipPath>
<clipPath id="clip1_70_2">
<rect width="2560" height="1440" fill="white" transform="translate(-302.562 -689) rotate(5.6767)"/>
</clipPath>
</defs>
</svg>
